<svg preserveAspectRatio="none" overflow="visible" style="display: block;" width="2.49873" height="2.59434" viewBox="0 0 2.49873 2.59434" fill="none" xmlns="http://www.w3.org/2000/svg">
<g id="Vector" style="mix-blend-mode:soft-light">
<path d="M2.0694 2.59434C1.5213 2.59434 0.995594 2.3682 0.60763 1.96554C0.219667 1.56287 0.00113713 1.01658 0 0.446531C0 0.328103 0.0452396 0.214526 0.125755 0.130785C0.206271 0.0470447 0.315468 0 0.429335 0C0.543201 0 0.652411 0.0470447 0.732927 0.130785C0.813443 0.214526 0.85867 0.328103 0.85867 0.446531C0.859806 0.779721 0.98787 1.09886 1.2148 1.33405C1.44173 1.56923 1.74904 1.70128 2.0694 1.70128C2.18326 1.70128 2.29247 1.74833 2.37299 1.83207C2.45351 1.91581 2.49873 2.02938 2.49873 2.14781C2.49873 2.26624 2.45351 2.37982 2.37299 2.46356C2.29247 2.5473 2.18326 2.59434 2.0694 2.59434Z" fill="black"/>
</g>
</svg>
